<?xml version="1.0" encoding="UTF-8" standalone="no"?>
<!-- Created with Inkscape (http://www.inkscape.org/) -->

<svg
   xmlns:dc="http://purl.org/dc/elements/1.1/"
   xmlns:cc="http://creativecommons.org/ns#"
   xmlns:rdf="http://www.w3.org/1999/02/22-rdf-syntax-ns#"
   xmlns:svg="http://www.w3.org/2000/svg"
   xmlns="http://www.w3.org/2000/svg"
   xmlns:sodipodi="http://sodipodi.sourceforge.net/DTD/sodipodi-0.dtd"
   xmlns:inkscape="http://www.inkscape.org/namespaces/inkscape"
   id="svg4026"
   sodipodi:docname="db9.svg"
   viewBox="0 0 195.46336 82.345922"
   version="1.1"
   inkscape:version="0.92.5 (2060ec1f9f, 2020-04-08)"
   width="100%"
   height="100%">
  <defs
     id="defs3023" />
  <sodipodi:namedview
     id="base"
     bordercolor="#666666"
     inkscape:pageshadow="2"
     inkscape:window-y="27"
     pagecolor="#ffffff"
     inkscape:window-height="1016"
     inkscape:window-maximized="1"
     inkscape:zoom="0.80326453"
     inkscape:window-x="72"
     showgrid="false"
     borderopacity="1.0"
     inkscape:current-layer="layer1"
     inkscape:cx="130.39351"
     inkscape:cy="34.852608"
     inkscape:window-width="1848"
     inkscape:pageopacity="0.0"
     inkscape:document-units="px"
     fit-margin-top="0"
     fit-margin-left="0"
     fit-margin-right="0"
     fit-margin-bottom="0" />
  <g
     id="layer1"
     inkscape:label="Layer 1"
     inkscape:groupmode="layer"
     transform="translate(32.935298,-798.16272)">
    <rect
       style="fill:#e7d66c;fill-opacity:1;stroke-width:0.8955068"
       id="rect88"
       width="206.65671"
       height="159.34976"
       x="-37.914978"
       y="756.01666" />
    <rect
       style="fill:#ffffff;fill-opacity:1;stroke:#000000;stroke-width:4;stroke-miterlimit:4;stroke-dasharray:none"
       id="rect3998"
       width="191.46336"
       height="78.345924"
       x="-30.935303"
       y="800.16272"
       rx="7"
       ry="7"
       inkscape:export-xdpi="15.7165"
       inkscape:export-ydpi="15.7165" />
    <path
       style="fill:#ffffff;fill-opacity:0.04901961;stroke:#000000;stroke-width:4;stroke-linecap:butt;stroke-linejoin:round;stroke-miterlimit:4;stroke-dasharray:none;stroke-dashoffset:0;stroke-opacity:1"
       d="m 23.132203,817.16055 h 83.328347 c 5.54,0 10.89802,4.53327 10,10 l -4,24.35027 c -0.89802,5.46673 -4.46,10 -10,10 H 27.132203 c -5.54,0 -9.101984,-4.53327 -10,-10 l -4,-24.35027 c -0.898016,-5.46673 4.46,-10 10,-10 z"
       id="rect3131"
       inkscape:connector-curvature="0"
       sodipodi:nodetypes="sssssssss"
       inkscape:export-xdpi="15.7165"
       inkscape:export-ydpi="15.7165" />
    <path
       style="fill:#000000;fill-opacity:1;stroke:none"
       d="m 31.948781,830.46563 c 0,2.48528 -2.01472,4.5 -4.5,4.5 -2.48528,0 -4.5,-2.01472 -4.5,-4.5 0,-2.48528 2.01472,-4.5 4.5,-4.5 2.48528,0 4.5,2.01472 4.5,4.5 z"
       id="path3134"
       inkscape:connector-curvature="0"
       inkscape:export-xdpi="15.7165"
       inkscape:export-ydpi="15.7165" />
    <path
       inkscape:connector-curvature="0"
       id="path3137"
       d="m 50.622581,830.46563 c 0,2.48528 -2.01472,4.5 -4.5,4.5 -2.48528,0 -4.5,-2.01472 -4.5,-4.5 0,-2.48528 2.01472,-4.5 4.5,-4.5 2.48528,0 4.5,2.01472 4.5,4.5 z"
       style="fill:#000000;fill-opacity:1;stroke:none"
       inkscape:export-xdpi="15.7165"
       inkscape:export-ydpi="15.7165" />
    <path
       style="fill:#000000;fill-opacity:1;stroke:none"
       d="m 69.296376,830.46563 c 0,2.48528 -2.01472,4.5 -4.500002,4.5 -2.48528,0 -4.5,-2.01472 -4.5,-4.5 0,-2.48528 2.01472,-4.5 4.5,-4.5 2.485282,0 4.500002,2.01472 4.500002,4.5 z"
       id="path3139"
       inkscape:connector-curvature="0"
       inkscape:export-xdpi="15.7165"
       inkscape:export-ydpi="15.7165" />
    <path
       inkscape:connector-curvature="0"
       id="path3141"
       d="m 87.970175,830.46563 c 0,2.48528 -2.01472,4.5 -4.5,4.5 -2.48528,0 -4.5,-2.01472 -4.5,-4.5 0,-2.48528 2.01472,-4.5 4.5,-4.5 2.48528,0 4.5,2.01472 4.5,4.5 z"
       style="fill:#000000;fill-opacity:1;stroke:none"
       inkscape:export-xdpi="15.7165"
       inkscape:export-ydpi="15.7165" />
    <path
       style="fill:#000000;fill-opacity:1;stroke:none"
       d="m 106.64398,830.46563 c 0,2.48528 -2.01472,4.5 -4.5,4.5 -2.485279,0 -4.500004,-2.01472 -4.500004,-4.5 0,-2.48528 2.014725,-4.5 4.500004,-4.5 2.48528,0 4.5,2.01472 4.5,4.5 z"
       id="path3143"
       inkscape:connector-curvature="0"
       inkscape:export-xdpi="15.7165"
       inkscape:export-ydpi="15.7165" />
    <path
       style="fill:#000000;fill-opacity:1;stroke:none"
       d="m 41.285687,848.20574 c 0,2.48528 -2.01472,4.5 -4.5,4.5 -2.48528,0 -4.5,-2.01472 -4.5,-4.5 0,-2.48528 2.01472,-4.5 4.5,-4.5 2.48528,0 4.5,2.01472 4.5,4.5 z"
       id="path3147"
       inkscape:connector-curvature="0"
       inkscape:export-xdpi="15.7165"
       inkscape:export-ydpi="15.7165" />
    <path
       inkscape:connector-curvature="0"
       id="path3149"
       d="m 59.959482,848.20574 c 0,2.48528 -2.01472,4.5 -4.500002,4.5 -2.48528,0 -4.5,-2.01472 -4.5,-4.5 0,-2.48528 2.01472,-4.5 4.5,-4.5 2.485282,0 4.500002,2.01472 4.500002,4.5 z"
       style="fill:#000000;fill-opacity:1;stroke:none"
       inkscape:export-xdpi="15.7165"
       inkscape:export-ydpi="15.7165" />
    <path
       style="fill:#000000;fill-opacity:1;stroke:none"
       d="m 78.633286,848.20574 c 0,2.48528 -2.01472,4.5 -4.5,4.5 -2.48528,0 -4.5,-2.01472 -4.5,-4.5 0,-2.48528 2.01472,-4.5 4.5,-4.5 2.48528,0 4.5,2.01472 4.5,4.5 z"
       id="path3151"
       inkscape:connector-curvature="0"
       inkscape:export-xdpi="15.7165"
       inkscape:export-ydpi="15.7165" />
    <path
       inkscape:connector-curvature="0"
       id="path3153"
       d="m 97.307072,848.20574 c 0,2.48528 -2.01472,4.5 -4.5,4.5 -2.48528,0 -4.5,-2.01472 -4.5,-4.5 0,-2.48528 2.01472,-4.5 4.5,-4.5 2.48528,0 4.5,2.01472 4.5,4.5 z"
       style="fill:#000000;fill-opacity:1;stroke:none"
       inkscape:export-xdpi="15.7165"
       inkscape:export-ydpi="15.7165" />
    <path
       style="fill:#000000;fill-opacity:1;stroke:none"
       d="m 156.98481,848.90909 -14.96448,8.63975 -14.96449,-8.63975 v -17.2795 l 14.96449,-8.63974 14.96448,8.63974 z"
       id="path3155"
       inkscape:connector-curvature="0"
       inkscape:export-xdpi="15.7165"
       inkscape:export-ydpi="15.7165" />
    <path
       style="fill:#ffffff;fill-opacity:1;stroke:none"
       d="m 151.02033,840.26935 c 0,4.97056 -4.02943,9 -9,9 -4.97056,0 -9,-4.02944 -9,-9 0,-4.97056 4.02944,-9 9,-9 4.97057,0 9,4.02944 9,9 z"
       id="path3157"
       inkscape:connector-curvature="0"
       inkscape:export-xdpi="15.7165"
       inkscape:export-ydpi="15.7165" />
    <path
       style="fill:#000000;fill-opacity:1;stroke:none"
       d="m 2.5369172,848.90909 -14.9644802,8.63975 -14.96449,-8.63975 v -17.2795 l 14.96449,-8.63974 14.9644802,8.63974 z"
       id="path3155-6"
       inkscape:connector-curvature="0"
       inkscape:export-xdpi="15.7165"
       inkscape:export-ydpi="15.7165" />
    <path
       inkscape:connector-curvature="0"
       style="fill:#ffffff;fill-opacity:1;stroke:none"
       d="m -3.4275676,840.26935 c 0,4.97056 -4.0294337,9 -8.9999954,9 -4.970563,0 -9.000005,-4.02944 -9.000005,-9 0,-4.97056 4.029442,-9 9.000005,-9 4.9705617,0 8.9999954,4.02944 8.9999954,9 z"
       id="path3157-0"
       inkscape:export-xdpi="15.7165"
       inkscape:export-ydpi="15.7165" />
  </g>
  <metadata
     id="metadata3021">
    <rdf:RDF>
      <cc:Work>
        <dc:format>image/svg+xml</dc:format>
        <dc:type
           rdf:resource="http://purl.org/dc/dcmitype/StillImage" />
        <cc:license
           rdf:resource="http://creativecommons.org/publicdomain/zero/1.0/" />
        <dc:publisher>
          <cc:Agent
             rdf:about="http://openclipart.org/">
            <dc:title>Openclipart</dc:title>
          </cc:Agent>
        </dc:publisher>
        <dc:title>DB9-Feale</dc:title>
        <dc:date>2010-08-18T08:21:28</dc:date>
        <dc:description>DB9-Male,9 pin,port,modem,bujung</dc:description>
        <dc:source>https://openclipart.org/detail/81241/db9-feale-by-aungkarns</dc:source>
        <dc:creator>
          <cc:Agent>
            <dc:title>aungkarns</dc:title>
          </cc:Agent>
        </dc:creator>
        <dc:subject>
          <rdf:Bag>
            <rdf:li>9 pin</rdf:li>
            <rdf:li>DB9-Male</rdf:li>
            <rdf:li>bujung</rdf:li>
            <rdf:li>modem</rdf:li>
            <rdf:li>port</rdf:li>
          </rdf:Bag>
        </dc:subject>
      </cc:Work>
      <cc:License
         rdf:about="http://creativecommons.org/publicdomain/zero/1.0/">
        <cc:permits
           rdf:resource="http://creativecommons.org/ns#Reproduction" />
        <cc:permits
           rdf:resource="http://creativecommons.org/ns#Distribution" />
        <cc:permits
           rdf:resource="http://creativecommons.org/ns#DerivativeWorks" />
      </cc:License>
    </rdf:RDF>
  </metadata>
</svg>
